<svg width="335" height="170" viewBox="0 0 335 170" fill="none" xmlns="http://www.w3.org/2000/svg">
<path d="M11.5001 39.2157C12.321 38.5873 14.0599 37.7305 16.9861 36.7474C19.8218 35.7947 23.4777 34.8174 27.8816 33.8258C36.6836 31.8438 48.24 29.8561 61.721 27.899C88.6697 23.9869 123.071 20.231 158.004 16.8924C227.855 10.2165 299.645 5.22632 317.77 3.99971C318.45 3.95367 319.013 4.34301 319.143 5.16399C321.143 17.7193 326.829 55.1199 329.553 90.7295C330.916 108.553 331.526 125.791 330.593 139.197C330.126 145.914 329.281 151.506 328.022 155.672C326.711 160.011 325.182 162.023 323.955 162.712C323.262 163.102 321.601 163.623 318.622 164.087C315.767 164.531 312.07 164.874 307.603 165.115C298.679 165.597 286.936 165.662 273.235 165.404C245.847 164.89 210.869 163.093 175.458 160.841C104.647 156.338 32.2741 150.026 15.7942 148.565C15.1487 148.507 14.719 148.114 14.5845 147.551C12.5163 138.9 7.11204 114.922 4.70574 91.2609C3.50099 79.4146 3.06619 67.8135 4.11841 58.3195C5.19859 48.5733 7.74111 42.0931 11.5001 39.2157Z" stroke="#E2CF22" stroke-width="7"/>
</svg>
